
<svg xmlns="http://www.w3.org/2000/svg" xmlns:xlink="http://www.w3.org/1999/xlink" viewBox="0 0 375 730" width="375" height="730" fill="none">
  <rect width="375" height="730" fill="#e8eddb"></rect>
  <g opacity="100%">
    <rect x="0" y="0" width="375" height="60" fill="#e8eddb" filter="url(#filter_dshadow_10_2_-2_0303031a)"></rect>
    <rect x="0" y="60" width="375" height="0" fill="#e5e7eb"></rect>
  </g>
  <svg xmlns="http://www.w3.org/2000/svg" viewBox="0 0 448 512" width="18" height="18" fill="#030303" x="24" y="21" opacity="100%">
    <path d="M447.1 256C447.1 273.7 433.7 288 416 288H109.3l105.4 105.4c12.5 12.5 12.5 32.75 0 45.25C208.4 444.9 200.2 448 192 448s-16.38-3.125-22.62-9.375l-160-160c-12.5-12.5-12.5-32.75 0-45.25l160-160c12.5-12.5 32.75-12.5 45.25 0s12.5 32.75 0 45.25L109.3 224H416C433.7 224 447.1 238.3 447.1 256z"></path>
  </svg>
  <g opacity="100%">
    <text x="139" y="35.5" font-family="Open Sans" font-size="20" fill="#030303" letter-spacing="0" font-weight="500" font-style="normal">
      <tspan x="141">Edit Recipient</tspan>
    </text>
  </g>
  <g opacity="100%">
    <rect x="17" y="76" width="340" height="598" fill="#fff" stroke="#e5e7eb" stroke-width="0" rx="15" filter="url(#filter_dshadow_2_0_1_0000000d)"></rect>
  </g>
  <g opacity="100%">
    <rect x="147" y="100" width="80" height="80" fill="#e8eddb" stroke="#e5e7eb" stroke-width="0" rx="40" filter="url(#filter_dshadow_0_0_0_00000014)"></rect>
  </g>
  <svg xmlns="http://www.w3.org/2000/svg" viewBox="0 0 512 512" width="18" height="18" fill="#030303" x="178" y="131" opacity="100%">
    <path d="M194.6 32H317.4C338.1 32 356.4 45.22 362.9 64.82L373.3 96H448C483.3 96 512 124.7 512 160V416C512 451.3 483.3 480 448 480H64C28.65 480 0 451.3 0 416V160C0 124.7 28.65 96 64 96H138.7L149.1 64.82C155.6 45.22 173.9 32 194.6 32H194.6zM256 384C309 384 352 341 352 288C352 234.1 309 192 256 192C202.1 192 160 234.1 160 288C160 341 202.1 384 256 384z"></path>
  </svg>
  <g opacity="100%">
    <text x="33" y="209.5" font-family="Open Sans" font-size="14" fill="#595236" letter-spacing="0" font-weight="700" font-style="normal">Name</text>
  </g>
  <g opacity="100%">
    <rect filter="url(#filter_dshadow_0_0_0_00000014)" x="33" y="220" width="308" height="36" fill="#fff" rx="18" stroke="#e5e7eb" stroke-width="0"></rect>
    <text x="41" y="243.5" font-family="Open Sans" font-size="14" fill="#242424" letter-spacing="0" font-weight="400" font-style="normal">
      <tspan>Enter name</tspan>
    </text>
  </g>
  <g opacity="100%">
    <text x="33" y="285.5" font-family="Open Sans" font-size="14" fill="#595236" letter-spacing="0" font-weight="700" font-style="normal">Birthday / Anniversary</text>
  </g>
  <g opacity="100%">
    <rect filter="url(#filter_dshadow_0_0_0_00000014)" x="33" y="296" width="284" height="36" fill="#fff" rx="18" stroke="#e5e7eb" stroke-width="0"></rect>
    <text x="41" y="319.5" font-family="Open Sans" font-size="14" fill="#242424" letter-spacing="0" font-weight="400" font-style="normal">
      <tspan>Select date</tspan>
    </text>
  </g>
  <svg xmlns="http://www.w3.org/2000/svg" viewBox="0 0 448 512" width="16" height="16" fill="#030303" x="325" y="306" opacity="100%">
    <path d="M96 32C96 14.33 110.3 0 128 0C145.7 0 160 14.33 160 32V64H288V32C288 14.33 302.3 0 320 0C337.7 0 352 14.33 352 32V64H400C426.5 64 448 85.49 448 112V160H0V112C0 85.49 21.49 64 48 64H96V32zM448 464C448 490.5 426.5 512 400 512H48C21.49 512 0 490.5 0 464V192H448V464z"></path>
  </svg>
  <g opacity="100%">
    <text x="33" y="361.5" font-family="Open Sans" font-size="14" fill="#595236" letter-spacing="0" font-weight="700" font-style="normal">Relationship</text>
  </g>
  <g opacity="100%">
    <rect filter="url(#filter_dshadow_0_0_0_00000014)" x="33" y="372" width="60" height="24" fill="#c4ecd4" stroke="#e5e7eb" stroke-width="0" rx="12"></rect>
    <text x="63" y="388.5" font-family="Open Sans" font-size="12" fill="#242424" letter-spacing="0" font-weight="400" font-style="normal">
      <tspan></tspan>
    </text>
  </g>
  <g opacity="100%">
    <text x="45" y="387.5" font-family="Open Sans" font-size="12" fill="#242424" letter-spacing="0" font-weight="400" font-style="normal">
      <tspan x="47">Family</tspan>
    </text>
  </g>
  <g opacity="100%">
    <rect filter="url(#filter_dshadow_0_0_0_00000014)" x="101" y="372" width="59" height="24" fill="#c4ecd4" stroke="#e5e7eb" stroke-width="0" rx="12"></rect>
    <text x="130.5" y="388.5" font-family="Open Sans" font-size="12" fill="#242424" letter-spacing="0" font-weight="400" font-style="normal">
      <tspan></tspan>
    </text>
  </g>
  <g opacity="100%">
    <text x="113" y="387.5" font-family="Open Sans" font-size="12" fill="#242424" letter-spacing="0" font-weight="400" font-style="normal">
      <tspan x="115">Friend</tspan>
    </text>
  </g>
  <g opacity="100%">
    <rect filter="url(#filter_dshadow_0_0_0_00000014)" x="168" y="372" width="78" height="24" fill="#c4ecd4" stroke="#e5e7eb" stroke-width="0" rx="12"></rect>
    <text x="207" y="388.5" font-family="Open Sans" font-size="12" fill="#242424" letter-spacing="0" font-weight="400" font-style="normal">
      <tspan></tspan>
    </text>
  </g>
  <g opacity="100%">
    <text x="180" y="387.5" font-family="Open Sans" font-size="12" fill="#242424" letter-spacing="0" font-weight="400" font-style="normal">
      <tspan x="182">Coworker</tspan>
    </text>
  </g>
  <g opacity="100%">
    <text x="33" y="425.5" font-family="Open Sans" font-size="14" fill="#595236" letter-spacing="0" font-weight="700" font-style="normal">Notes</text>
  </g>
  <g opacity="100%">
    <rect filter="url(#filter_dshadow_0_0_0_00000014)" x="33" y="436" width="308" height="96" fill="#fff" rx="30" stroke="#e5e7eb" stroke-width="0"></rect>
    <text x="41" y="489.5" font-family="Open Sans" font-size="14" fill="#242424" letter-spacing="0" font-weight="400" font-style="normal">
      <tspan>Enter notes</tspan>
    </text>
  </g>
  <g opacity="100%">
    <rect filter="url(#filter_dshadow_0_0_0_00000014)" x="33" y="562" width="308" height="36" fill="#eca881" stroke="#e5e7eb" stroke-width="0" rx="18"></rect>
    <text x="187" y="585.5" font-family="Open Sans" font-size="14" fill="#fff" letter-spacing="0" font-weight="500" font-style="normal">
      <tspan></tspan>
    </text>
  </g>
  <g opacity="100%">
    <text x="116" y="583.5" font-family="Open Sans" font-size="14" fill="#fff" letter-spacing="0" font-weight="500" font-style="normal">
      <tspan x="119">Import from Contacts</tspan>
    </text>
  </g>
  <g opacity="100%">
    <rect filter="url(#filter_dshadow_0_0_0_00000014)" x="33" y="614" width="146" height="36" fill="#595236" stroke="#e5e7eb" stroke-width="0" rx="18"></rect>
    <text x="106" y="637.5" font-family="Open Sans" font-size="14" fill="#fff" letter-spacing="0" font-weight="500" font-style="normal">
      <tspan></tspan>
    </text>
  </g>
  <g opacity="100%">
    <text x="84" y="635.5" font-family="Open Sans" font-size="14" fill="#fff" letter-spacing="0" font-weight="500" font-style="normal">
      <tspan x="87">Cancel</tspan>
    </text>
  </g>
  <g opacity="100%">
    <rect filter="url(#filter_dshadow_0_0_0_00000014)" x="195" y="614" width="146" height="36" fill="#eca881" stroke="#e5e7eb" stroke-width="0" rx="18"></rect>
    <text x="268" y="637.5" font-family="Open Sans" font-size="14" fill="#fff" letter-spacing="0" font-weight="500" font-style="normal">
      <tspan></tspan>
    </text>
  </g>
  <g opacity="100%">
    <text x="253" y="635.5" font-family="Open Sans" font-size="14" fill="#fff" letter-spacing="0" font-weight="500" font-style="normal">
      <tspan x="256">Save</tspan>
    </text>
  </g>
  <g opacity="100%">
    <rect x="0" y="674" width="375" height="56" fill="#22181d" filter="url(#filter_dshadow_0_0_0_00000014)"></rect>
    <rect x="0" y="674" width="375" height="0" fill="#e5e7eb"></rect>
  </g>
  <g opacity="100%">
    <rect filter="url(#filter_dshadow_0_0_0_00000014)" x="71" y="686" width="66" height="32" fill="#433d39" stroke="#e5e7eb" stroke-width="0" rx="16"></rect>
    <text x="104" y="706.5" font-family="Open Sans" font-size="12" fill="#fff" letter-spacing="0" font-weight="400" font-style="normal">
      <tspan></tspan>
    </text>
  </g>
  <g opacity="100%">
    <text x="87" y="705.5" font-family="Open Sans" font-size="12" fill="#fff" letter-spacing="0" font-weight="400" font-style="normal">
      <tspan x="89">Home</tspan>
    </text>
  </g>
  <g opacity="100%">
    <rect filter="url(#filter_dshadow_0_0_0_00000014)" x="153" y="686" width="58" height="32" fill="#433d39" stroke="#e5e7eb" stroke-width="0" rx="16"></rect>
    <text x="182" y="706.5" font-family="Open Sans" font-size="12" fill="#fff" letter-spacing="0" font-weight="400" font-style="normal">
      <tspan></tspan>
    </text>
  </g>
  <g opacity="100%">
    <text x="169" y="705.5" font-family="Open Sans" font-size="12" fill="#fff" letter-spacing="0" font-weight="400" font-style="normal">
      <tspan x="172">Gifts</tspan>
    </text>
  </g>
  <g opacity="100%">
    <rect filter="url(#filter_dshadow_0_0_0_00000014)" x="227" y="686" width="77" height="32" fill="#433d39" stroke="#e5e7eb" stroke-width="0" rx="16"></rect>
    <text x="265.5" y="706.5" font-family="Open Sans" font-size="12" fill="#fff" letter-spacing="0" font-weight="400" font-style="normal">
      <tspan></tspan>
    </text>
  </g>
  <g opacity="100%">
    <text x="243" y="705.5" font-family="Open Sans" font-size="12" fill="#fff" letter-spacing="0" font-weight="400" font-style="normal">
      <tspan x="246">Settings</tspan>
    </text>
  </g>
  <defs>
    <filter id="filter_dshadow_0_0_0_00000014" color-interpolation-filters="sRGB" filterUnits="userSpaceOnUse">
      <feFlood flood-opacity="0" result="bg-fix"></feFlood>
      <feColorMatrix in="SourceAlpha" type="matrix" values="0 0 0 0 0 0 0 0 0 0 0 0 0 0 0 0 0 0 127 0" result="alpha"></feColorMatrix>
      <feOffset dx="0" dy="0"></feOffset>
      <feGaussianBlur stdDeviation="0"></feGaussianBlur>
      <feComposite in2="alpha" operator="out"></feComposite>
      <feColorMatrix type="matrix" values="0 0 0 0 0 0 0 0 0 0 0 0 0 0 0 0 0 0 0.08 0"></feColorMatrix>
      <feBlend mode="normal" in2="bg-fix" result="bg-fix-filter_dshadow_0_0_0_00000014"></feBlend>
      <feBlend in="SourceGraphic" in2="bg-fix-filter_dshadow_0_0_0_00000014" result="shape"></feBlend>
    </filter>
    <filter id="filter_dshadow_2_0_1_0000000d" color-interpolation-filters="sRGB" filterUnits="userSpaceOnUse">
      <feFlood flood-opacity="0" result="bg-fix"></feFlood>
      <feColorMatrix in="SourceAlpha" type="matrix" values="0 0 0 0 0 0 0 0 0 0 0 0 0 0 0 0 0 0 127 0" result="alpha"></feColorMatrix>
      <feOffset dx="0" dy="1"></feOffset>
      <feGaussianBlur stdDeviation="1"></feGaussianBlur>
      <feComposite in2="alpha" operator="out"></feComposite>
      <feColorMatrix type="matrix" values="0 0 0 0 0 0 0 0 0 0 0 0 0 0 0 0 0 0 0.05 0"></feColorMatrix>
      <feBlend mode="normal" in2="bg-fix" result="bg-fix-filter_dshadow_2_0_1_0000000d"></feBlend>
      <feBlend in="SourceGraphic" in2="bg-fix-filter_dshadow_2_0_1_0000000d" result="shape"></feBlend>
    </filter>
    <filter id="filter_dshadow_10_2_-2_0303031a" color-interpolation-filters="sRGB" filterUnits="userSpaceOnUse">
      <feFlood flood-opacity="0" result="bg-fix"></feFlood>
      <feColorMatrix in="SourceAlpha" type="matrix" values="0 0 0 0 0 0 0 0 0 0 0 0 0 0 0 0 0 0 127 0" result="alpha"></feColorMatrix>
      <feOffset dx="2" dy="-2"></feOffset>
      <feGaussianBlur stdDeviation="5"></feGaussianBlur>
      <feComposite in2="alpha" operator="out"></feComposite>
      <feColorMatrix type="matrix" values="0 0 0 0 0.011764705882352941 0 0 0 0 0.011764705882352941 0 0 0 0 0.011764705882352941 0 0 0 0.1 0"></feColorMatrix>
      <feBlend mode="normal" in2="bg-fix" result="bg-fix-filter_dshadow_10_2_-2_0303031a"></feBlend>
      <feBlend in="SourceGraphic" in2="bg-fix-filter_dshadow_10_2_-2_0303031a" result="shape"></feBlend>
    </filter>
    <style id="google">@import url(https://fonts.googleapis.com/css2?family=Open+Sans:ital,wght@0,300;0,400;0,500;0,600;0,700;0,800;1,300;1,400;1,500;1,600;1,700;1,800&amp;display=swap);
</style>
    <style id="brand"></style>
  </defs>
</svg>