
<svg xmlns="http://www.w3.org/2000/svg" xmlns:xlink="http://www.w3.org/1999/xlink" viewBox="0 0 375 667" width="375" height="667" fill="none">
  <rect width="375" height="667" fill="#ffebec"></rect>
  <g opacity="100%">
    <text x="16" y="49.5" font-family="Open Sans" font-size="32" fill="#595236" letter-spacing="0" font-weight="300" font-style="normal">
      <tspan x="17">HELLO, KRISSY!</tspan>
    </text>
  </g>
  <g opacity="100%">
    <rect x="16" y="74" width="164" height="100" fill="#fef6db" stroke="#e5e7eb" stroke-width="0" rx="30" filter="url(#filter_dshadow_0_0_0_00000014)"></rect>
  </g>
  <g opacity="100%">
    <text x="32" y="105.5" font-family="Open Sans" font-size="14" fill="#595236" letter-spacing="0" font-weight="700" font-style="normal">Upcoming Gifts</text>
  </g>
  <g opacity="100%">
    <text x="32" y="132" font-family="Open Sans" font-size="10" fill="#798154" letter-spacing="0" font-weight="700" font-style="normal">5 in the next week</text>
  </g>
  <g opacity="100%">
    <rect x="195" y="74" width="164" height="100" fill="#433d39" stroke="#e5e7eb" stroke-width="0" rx="30" filter="url(#filter_dshadow_0_0_0_00000014)"></rect>
  </g>
  <g opacity="100%">
    <text x="211" y="105.5" font-family="Open Sans" font-size="14" fill="#fef6db" letter-spacing="0" font-weight="700" font-style="normal">Pending Purchases</text>
  </g>
  <g opacity="100%">
    <text x="211" y="152" font-family="Open Sans" font-size="10" fill="#e8eddb" letter-spacing="0" font-weight="700" font-style="normal">3 awaiting action</text>
  </g>
  <g opacity="100%">
    <rect x="16" y="190" width="164" height="100" fill="#e5d0ed" stroke="#e5e7eb" stroke-width="0" rx="30" filter="url(#filter_dshadow_0_0_0_00000014)"></rect>
  </g>
  <g opacity="100%">
    <text x="32" y="221.5" font-family="Open Sans" font-size="14" fill="#595236" letter-spacing="0" font-weight="700" font-style="normal">Gift Sent This</text>
    <text x="32" y="241.5" font-family="Open Sans" font-size="14" fill="#595236" letter-spacing="0" font-weight="700" font-style="normal">Month</text>
  </g>
  <g opacity="100%">
    <text x="32" y="268" font-family="Open Sans" font-size="10" fill="#798154" letter-spacing="0" font-weight="700" font-style="normal">12 gifts</text>
  </g>
  <g opacity="100%">
    <rect x="195" y="190" width="164" height="100" fill="#595236" stroke="#e5e7eb" stroke-width="0" rx="30" filter="url(#filter_dshadow_0_0_0_00000014)"></rect>
  </g>
  <g opacity="100%">
    <text x="211" y="221.5" font-family="Open Sans" font-size="14" fill="#fef6db" letter-spacing="0" font-weight="700" font-style="normal">Missed Events</text>
  </g>
  <g opacity="100%">
    <text x="211" y="248" font-family="Open Sans" font-size="10" fill="#e8eddb" letter-spacing="0" font-weight="700" font-style="normal">2 events missed</text>
  </g>
  <g opacity="100%">
    <text x="16" y="321.5" font-family="Open Sans" font-size="14" fill="#595236" letter-spacing="0" font-weight="600" font-style="normal">Upcoming Gift Events</text>
  </g>
  <g opacity="100%">
    <rect x="16" y="334" width="343" height="60" fill="#fff" stroke="#e5e7eb" stroke-width="0" rx="15" filter="url(#filter_dshadow_2_0_1_0000000d)"></rect>
  </g>
  <g opacity="100%">
    <text x="28" y="361.5" font-family="Open Sans" font-size="14" fill="#595236" letter-spacing="0" font-weight="700" font-style="normal">Mom&apos;s Birthday</text>
  </g>
  <g opacity="100%">
    <text x="28" y="378.5" font-family="Open Sans" font-size="12" fill="#798154" letter-spacing="0" font-weight="normal" font-style="normal">Send flowers</text>
  </g>
  <g opacity="100%">
    <rect x="16" y="402" width="343" height="60" fill="#fff" stroke="#e5e7eb" stroke-width="0" rx="15" filter="url(#filter_dshadow_2_0_1_0000000d)"></rect>
  </g>
  <g opacity="100%">
    <text x="28" y="429.5" font-family="Open Sans" font-size="14" fill="#595236" letter-spacing="0" font-weight="700" font-style="normal">Anniversary Dinner</text>
  </g>
  <g opacity="100%">
    <text x="28" y="446.5" font-family="Open Sans" font-size="12" fill="#798154" letter-spacing="0" font-weight="normal" font-style="normal">Book a table</text>
  </g>
  <g opacity="100%">
    <rect x="16" y="470" width="343" height="60" fill="#fff" stroke="#e5e7eb" stroke-width="0" rx="15" filter="url(#filter_dshadow_2_0_1_0000000d)"></rect>
  </g>
  <g opacity="100%">
    <text x="28" y="497.5" font-family="Open Sans" font-size="14" fill="#595236" letter-spacing="0" font-weight="700" font-style="normal">Friend&apos;s Wedding</text>
  </g>
  <g opacity="100%">
    <text x="28" y="514.5" font-family="Open Sans" font-size="12" fill="#798154" letter-spacing="0" font-weight="normal" font-style="normal">Buy a gift card</text>
  </g>
  <g opacity="100%">
    <rect filter="url(#filter_dshadow_0_0_0_00000014)" x="309" y="530" width="50" height="50" fill="#eca881" rx="25"></rect>
    <text x="325.5" y="566.5" font-family="Open Sans" font-size="30" fill="#fff" letter-spacing="0" font-weight="normal" font-style="normal">
      <tspan>+</tspan>
    </text>
  </g>
  <g opacity="100%">
    <rect x="17" y="597" width="338" height="58" fill="#e8eddb" stroke="#e5e7eb" stroke-width="0" rx="29" filter="url(#filter_dshadow_2_0_1_0000000d)"></rect>
  </g>
  <svg xmlns="http://www.w3.org/2000/svg" height="23" width="23" viewBox="0 0 24 24" fill="#595236" x="61" y="614.5" opacity="100%">
    <path d="M0 0h24v24H0z" fill="none"></path>
    <path d="M10 20v-6h4v6h5v-8h3L12 3 2 12h3v8z"></path>
  </svg>
  <svg xmlns="http://www.w3.org/2000/svg" viewBox="0 0 512 512" width="20" height="20" fill="#595236" x="140" y="616" opacity="100%">
    <path d="M152 0H154.2C186.1 0 215.7 16.91 231.9 44.45L256 85.46L280.1 44.45C296.3 16.91 325.9 0 357.8 0H360C408.6 0 448 39.4 448 88C448 102.4 444.5 115.1 438.4 128H480C497.7 128 512 142.3 512 160V224C512 241.7 497.7 256 480 256H32C14.33 256 0 241.7 0 224V160C0 142.3 14.33 128 32 128H73.6C67.46 115.1 64 102.4 64 88C64 39.4 103.4 0 152 0zM190.5 68.78C182.9 55.91 169.1 48 154.2 48H152C129.9 48 112 65.91 112 88C112 110.1 129.9 128 152 128H225.3L190.5 68.78zM360 48H357.8C342.9 48 329.1 55.91 321.5 68.78L286.7 128H360C382.1 128 400 110.1 400 88C400 65.91 382.1 48 360 48V48zM32 288H224V512H80C53.49 512 32 490.5 32 464V288zM288 512V288H480V464C480 490.5 458.5 512 432 512H288z"></path>
  </svg>
  <svg xmlns="http://www.w3.org/2000/svg" viewBox="0 0 448 512" width="18" height="18" fill="#595236" x="217" y="617" opacity="100%">
    <path d="M96 32C96 14.33 110.3 0 128 0C145.7 0 160 14.33 160 32V64H288V32C288 14.33 302.3 0 320 0C337.7 0 352 14.33 352 32V64H400C426.5 64 448 85.49 448 112V160H0V112C0 85.49 21.49 64 48 64H96V32zM448 464C448 490.5 426.5 512 400 512H48C21.49 512 0 490.5 0 464V192H448V464z"></path>
  </svg>
  <svg xmlns="http://www.w3.org/2000/svg" viewBox="0 0 448 512" width="18" height="18" fill="#595236" x="291" y="617" opacity="100%">
    <path d="M224 256c70.7 0 128-57.31 128-128s-57.3-128-128-128C153.3 0 96 57.31 96 128S153.3 256 224 256zM274.7 304H173.3C77.61 304 0 381.6 0 477.3c0 19.14 15.52 34.67 34.66 34.67h378.7C432.5 512 448 496.5 448 477.3C448 381.6 370.4 304 274.7 304z"></path>
  </svg>
  <defs>
    <filter id="filter_dshadow_0_0_0_00000014" color-interpolation-filters="sRGB" filterUnits="userSpaceOnUse">
      <feFlood flood-opacity="0" result="bg-fix"></feFlood>
      <feColorMatrix in="SourceAlpha" type="matrix" values="0 0 0 0 0 0 0 0 0 0 0 0 0 0 0 0 0 0 127 0" result="alpha"></feColorMatrix>
      <feOffset dx="0" dy="0"></feOffset>
      <feGaussianBlur stdDeviation="0"></feGaussianBlur>
      <feComposite in2="alpha" operator="out"></feComposite>
      <feColorMatrix type="matrix" values="0 0 0 0 0 0 0 0 0 0 0 0 0 0 0 0 0 0 0.08 0"></feColorMatrix>
      <feBlend mode="normal" in2="bg-fix" result="bg-fix-filter_dshadow_0_0_0_00000014"></feBlend>
      <feBlend in="SourceGraphic" in2="bg-fix-filter_dshadow_0_0_0_00000014" result="shape"></feBlend>
    </filter>
    <filter id="filter_dshadow_2_0_1_0000000d" color-interpolation-filters="sRGB" filterUnits="userSpaceOnUse">
      <feFlood flood-opacity="0" result="bg-fix"></feFlood>
      <feColorMatrix in="SourceAlpha" type="matrix" values="0 0 0 0 0 0 0 0 0 0 0 0 0 0 0 0 0 0 127 0" result="alpha"></feColorMatrix>
      <feOffset dx="0" dy="1"></feOffset>
      <feGaussianBlur stdDeviation="1"></feGaussianBlur>
      <feComposite in2="alpha" operator="out"></feComposite>
      <feColorMatrix type="matrix" values="0 0 0 0 0 0 0 0 0 0 0 0 0 0 0 0 0 0 0.05 0"></feColorMatrix>
      <feBlend mode="normal" in2="bg-fix" result="bg-fix-filter_dshadow_2_0_1_0000000d"></feBlend>
      <feBlend in="SourceGraphic" in2="bg-fix-filter_dshadow_2_0_1_0000000d" result="shape"></feBlend>
    </filter>
    <style id="google">@import url(https://fonts.googleapis.com/css2?family=Open+Sans:ital,wght@0,300;0,400;0,500;0,600;0,700;0,800;1,300;1,400;1,500;1,600;1,700;1,800&amp;display=swap);
</style>
    <style id="brand"></style>
  </defs>
</svg>