<svg xmlns="http://www.w3.org/2000/svg" width="375" height="667" fill="none" viewBox="0 0 375 667">
    <rect width="375" height="667" fill="#ffebec"/>
    <text x="16" y="49.5" fill="#595236" font-family="Open Sans" font-size="32" font-weight="300" letter-spacing="0" opacity="100%">
      <tspan x="17">HELLO, KRISSY!</tspan>
    </text>
    <rect width="164" height="100" x="16" y="74" fill="#fef6db" stroke="#e5e7eb" stroke-width="0" filter="url(#filter_dshadow_0_0_0_00000014)" opacity="100%" rx="30"/>
    <text x="32" y="105.5" fill="#595236" font-family="Open Sans" font-size="14" font-weight="700" letter-spacing="0" opacity="100%">Upcoming Gifts</text>
    <text x="32" y="132" fill="#798154" font-family="Open Sans" font-size="10" font-weight="700" letter-spacing="0" opacity="100%">5 in the next week</text>
    <rect width="164" height="100" x="195" y="74" fill="#433d39" stroke="#e5e7eb" stroke-width="0" filter="url(#filter_dshadow_0_0_0_00000014)" opacity="100%" rx="30"/>
    <text x="211" y="105.5" fill="#fef6db" font-family="Open Sans" font-size="14" font-weight="700" letter-spacing="0" opacity="100%">Pending Purchases</text>
    <text x="211" y="152" fill="#e8eddb" font-family="Open Sans" font-size="10" font-weight="700" letter-spacing="0" opacity="100%">3 awaiting action</text>
    <rect width="164" height="100" x="16" y="190" fill="#e5d0ed" stroke="#e5e7eb" stroke-width="0" filter="url(#filter_dshadow_0_0_0_00000014)" opacity="100%" rx="30"/>
    <g opacity="100%">
        <text x="32" y="221.5" fill="#595236" font-family="Open Sans" font-size="14" font-weight="700" letter-spacing="0">Gift Sent This</text>
        <text x="32" y="241.5" fill="#595236" font-family="Open Sans" font-size="14" font-weight="700" letter-spacing="0">Month</text>
    </g>
    <text x="32" y="268" fill="#798154" font-family="Open Sans" font-size="10" font-weight="700" letter-spacing="0" opacity="100%">12 gifts</text>
    <rect width="164" height="100" x="195" y="190" fill="#595236" stroke="#e5e7eb" stroke-width="0" filter="url(#filter_dshadow_0_0_0_00000014)" opacity="100%" rx="30"/>
    <text x="211" y="221.5" fill="#fef6db" font-family="Open Sans" font-size="14" font-weight="700" letter-spacing="0" opacity="100%">Missed Events</text>
    <text x="211" y="248" fill="#e8eddb" font-family="Open Sans" font-size="10" font-weight="700" letter-spacing="0" opacity="100%">2 events missed</text>
    <text x="16" y="321.5" fill="#595236" font-family="Open Sans" font-size="14" font-weight="600" letter-spacing="0" opacity="100%">Upcoming Gift Events</text>
    <rect width="343" height="60" x="16" y="334" fill="#fff" stroke="#e5e7eb" stroke-width="0" filter="url(#filter_dshadow_2_0_1_0000000d)" opacity="100%" rx="15"/>
    <text x="28" y="361.5" fill="#595236" font-family="Open Sans" font-size="14" font-weight="700" letter-spacing="0" opacity="100%">Mom&apos;s Birthday</text>
    <text x="28" y="378.5" fill="#798154" font-family="Open Sans" font-size="12" letter-spacing="0" opacity="100%">Send flowers</text>
    <rect width="343" height="60" x="16" y="402" fill="#fff" stroke="#e5e7eb" stroke-width="0" filter="url(#filter_dshadow_2_0_1_0000000d)" opacity="100%" rx="15"/>
    <text x="28" y="429.5" fill="#595236" font-family="Open Sans" font-size="14" font-weight="700" letter-spacing="0" opacity="100%">Anniversary Dinner</text>
    <text x="28" y="446.5" fill="#798154" font-family="Open Sans" font-size="12" letter-spacing="0" opacity="100%">Book a table</text>
    <rect width="343" height="60" x="16" y="470" fill="#fff" stroke="#e5e7eb" stroke-width="0" filter="url(#filter_dshadow_2_0_1_0000000d)" opacity="100%" rx="15"/>
    <text x="28" y="497.5" fill="#595236" font-family="Open Sans" font-size="14" font-weight="700" letter-spacing="0" opacity="100%">Friend&apos;s Wedding</text>
    <text x="28" y="514.5" fill="#798154" font-family="Open Sans" font-size="12" letter-spacing="0" opacity="100%">Buy a gift card</text>
    <g opacity="100%">
        <rect width="50" height="50" x="309" y="530" fill="#eca881" filter="url(#filter_dshadow_0_0_0_00000014)" rx="25"/>
        <text x="325.5" y="566.5" fill="#fff" font-family="Open Sans" font-size="30" letter-spacing="0">
      <tspan>+</tspan>
    </text>
    </g>
    <rect width="338" height="58" x="17" y="597" fill="#e8eddb" stroke="#e5e7eb" stroke-width="0" filter="url(#filter_dshadow_2_0_1_0000000d)" opacity="100%" rx="29"/>
    <svg xmlns="http://www.w3.org/2000/svg" width="23" height="23" x="61" y="614.5" fill="#595236" opacity="100%" viewBox="0 0 24 24">
        <path fill="none" d="M0 0h24v24H0z"/>
        <path d="M10 20v-6h4v6h5v-8h3L12 3 2 12h3v8z"/>
    </svg>
    <svg xmlns="http://www.w3.org/2000/svg" width="20" height="20" x="140" y="616" fill="#595236" opacity="100%" viewBox="0 0 512 512">
        <path d="M152 0h2.2a90.2 90.2 0 0 1 77.7 44.45L256 85.46l24.1-41.01A90.2 90.2 0 0 1 357.8 0h2.2a88 88 0 0 1 88 88c0 14.4-3.5 27.1-9.6 40H480c17.7 0 32 14.3 32 32v64c0 17.7-14.3 32-32 32H32c-17.67 0-32-14.3-32-32v-64c0-17.7 14.33-32 32-32h41.6c-6.14-12.9-9.6-25.6-9.6-40a88 88 0 0 1 88-88m38.5 68.78A42.2 42.2 0 0 0 154.2 48H152a40 40 0 1 0 0 80h73.3zM360 48h-2.2c-14.9 0-28.7 7.91-36.3 20.78L286.7 128H360a40 40 0 1 0 0-80M32 288h192v224H80a48 48 0 0 1-48-48zm256 224V288h192v176c0 26.5-21.5 48-48 48z"/>
    </svg>
    <svg xmlns="http://www.w3.org/2000/svg" width="18" height="18" x="217" y="617" fill="#595236" opacity="100%" viewBox="0 0 448 512">
        <path d="M96 32c0-17.67 14.3-32 32-32s32 14.33 32 32v32h128V32c0-17.67 14.3-32 32-32s32 14.33 32 32v32h48a48 48 0 0 1 48 48v48H0v-48a48 48 0 0 1 48-48h48zm352 432c0 26.5-21.5 48-48 48H48a48 48 0 0 1-48-48V192h448z"/>
    </svg>
    <svg xmlns="http://www.w3.org/2000/svg" width="18" height="18" x="291" y="617" fill="#595236" opacity="100%" viewBox="0 0 448 512">
        <path d="M224 256c70.7 0 128-57.31 128-128S294.7 0 224 0 96 57.31 96 128s57.3 128 128 128m50.7 48H173.3C77.61 304 0 381.6 0 477.3a34.67 34.67 0 0 0 34.66 34.67h378.7A34.6 34.6 0 0 0 448 477.3c0-95.7-77.6-173.3-173.3-173.3"/>
    </svg>
    <defs>
        <filter id="filter_dshadow_0_0_0_00000014" color-interpolation-filters="sRGB" filterUnits="userSpaceOnUse">
            <feFlood flood-opacity="0" result="bg-fix"/>
            <feColorMatrix in="SourceAlpha" result="alpha" values="0 0 0 0 0 0 0 0 0 0 0 0 0 0 0 0 0 0 127 0"/>
            <feOffset/>
            <feGaussianBlur/>
            <feComposite in2="alpha" operator="out"/>
            <feColorMatrix values="0 0 0 0 0 0 0 0 0 0 0 0 0 0 0 0 0 0 0.08 0"/>
            <feBlend in2="bg-fix" result="bg-fix-filter_dshadow_0_0_0_00000014"/>
            <feBlend in="SourceGraphic" in2="bg-fix-filter_dshadow_0_0_0_00000014" result="shape"/>
        </filter>
        <filter id="filter_dshadow_2_0_1_0000000d" color-interpolation-filters="sRGB" filterUnits="userSpaceOnUse">
            <feFlood flood-opacity="0" result="bg-fix"/>
            <feColorMatrix in="SourceAlpha" result="alpha" values="0 0 0 0 0 0 0 0 0 0 0 0 0 0 0 0 0 0 127 0"/>
            <feOffset dy="1"/>
            <feGaussianBlur stdDeviation="1"/>
            <feComposite in2="alpha" operator="out"/>
            <feColorMatrix values="0 0 0 0 0 0 0 0 0 0 0 0 0 0 0 0 0 0 0.05 0"/>
            <feBlend in2="bg-fix" result="bg-fix-filter_dshadow_2_0_1_0000000d"/>
            <feBlend in="SourceGraphic" in2="bg-fix-filter_dshadow_2_0_1_0000000d" result="shape"/>
        </filter>
        <style id="google">
            @import url(https://fonts.googleapis.com/css2?family=Open+Sans:ital,wght@0,300;0,400;0,500;0,600;0,700;0,800;1,300;1,400;1,500;1,600;1,700;1,800&amp;display=swap);
        </style>
    </defs>
</svg>
